<?xml version="1.0" encoding="UTF-8"?>
<svg id="Capa_1" data-name="Capa 1" xmlns="http://www.w3.org/2000/svg" viewBox="0 0 868 875">
  <defs>
    <style>
      .cls-1, .cls-2, .cls-3 {
        stroke-width: 0px;
      }

      .cls-4 {
        font-family: JujutsuKaisen, 'Jujutsu Kaisen';
        font-size: 207.01px;
      }

      .cls-4, .cls-5, .cls-2 {
        fill: #fff;
      }

      .cls-5 {
        stroke: #fff;
        stroke-miterlimit: 10;
        stroke-width: 9.67px;
      }

      .cls-3 {
        fill: #ef7891;
      }
    </style>
  </defs>
  <rect class="cls-1" x="463.91" y="170.47" width="129.37" height="214.93"/>
  <rect class="cls-1" x="556.61" y="509.68" width="50.93" height="38.71"/>
  <g>
    <g>
      <g>
        <path class="cls-2" d="m441.84,458.46l242.97,18.37-242.97,19.25s6.9-25.37,0-37.62Z"/>
        <path class="cls-2" d="m441.15,496.64l.19-.7c.07-.25,6.77-25.31.05-37.24l-.47-.83,243.92,18.44v1.02s-243.69,19.3-243.69,19.3Zm1.56-37.61c5.69,11.5.85,32.32-.21,36.48l235.7-18.67-235.49-17.81Z"/>
      </g>
      <g>
        <path class="cls-1" d="m615.78,139.74s6.21-8.97,8.28-20.71c2.07-11.73,9.66-16.57,12.42-20.02,2.76-3.45,6.9,2.76,8.97,6.21,2.07,3.45,6.21,11.04,7.59,18.64,1.38,7.59.69,26.23,2.07,31.06,1.38,4.83,15.19,35.89,17.26,41.42,2.07,5.52,7.59,15.88,6.9,22.78-.69,6.9-.69,31.06-1.38,34.51-.69,3.45-10.35,91.11-6.21,103.54,4.14,12.42,3.45,13.12,1.38,16.57s-6.21,7.59-9.66,12.42c-3.45,4.83-6.21,11.73-9.66,15.19s-1.38,6.21-4.14,8.28c-2.76,2.07-4.14.69-6.9,2.76-2.76,2.07-8.28,4.83-11.04,3.45-2.76-1.38,3.45,6.21-7.59,11.73,0,0,3.45,11.73-2.76,22.78-6.21,11.04-3.45,22.78-2.07,26.92,1.38,4.14,3.45,6.9,0,13.81-3.45,6.9-8.28,13.81-7.59,17.95.69,4.14,5.52,12.42,5.52,16.57s-2.07,6.9-2.07,6.9c0,0-5.52,0-7.59,1.38s-4.83,2.76-6.21.69c-1.38-2.07-7.59-17.95-11.73-18.64-4.14-.69-12.42-2.07-14.5,0-2.07,2.07-4.83,7.59-4.83,12.42s3.45,11.04,3.45,11.04c0,0-8.28-2.07-11.73.69-3.45,2.76-4.83,6.21-6.9,6.9-2.07.69-4.14.69-4.14.69,0,0-22.78-17.26-17.95-50.39,0,0-17.95-15.88-11.04-44.87,0,0,.69-11.73-12.42-15.88,0,0-2.76,0-4.83-.69-2.07-.69-4.14-6.21-6.21-6.9-2.07-.69-7.59-4.83-8.97-2.76"/>
        <path class="cls-2" d="m550.9,550.74h-1.03l-.82-.62c-.97-.74-23.47-18.21-19.33-51.72-4.14-4.34-16.93-20.3-10.86-46.36,0-1.42-.47-9.25-9.89-12.44-1.03-.03-3.32-.18-5.28-.84-2.03-.68-3.32-2.61-4.68-4.66-.49-.74-1.3-1.95-1.72-2.31-.8-.29-1.7-.79-2.73-1.35-1.02-.56-3.13-1.71-3.86-1.76.24.02.9-.16,1.32-.79l-5.09-3.39c2.54-3.81,7.37-1.17,10.56.58.67.37,1.59.87,1.92.98,2.03.68,3.32,2.61,4.68,4.66.49.73,1.28,1.93,1.71,2.3,1.3.39,3.13.48,3.69.48h.47l.45.14c12.17,3.84,14.84,14.09,14.55,18.97l-.08.53c-6.37,26.74,9.43,41.27,10.1,41.88l1.22,1.09-.23,1.63c-4.03,27.66,11.95,43.38,15.93,46.82.6-.07,1.4-.2,2.17-.46.3-.16,1.09-1.15,1.67-1.88,1.06-1.33,2.39-2.99,4.29-4.51,2.3-1.84,5.67-2.22,8.61-2.1-.79-2.21-1.47-4.82-1.47-7.25,0-5.47,2.97-11.83,5.73-14.59,2.66-2.66,8.31-2.33,17.16-.85,3.98.66,7.23,6.16,12.2,16.74.49,1.05,1.04,2.21,1.36,2.83.37-.12,1.06-.41,2.19-1.16,1.95-1.3,5.26-1.71,7.47-1.84.4-.9.83-2.26.83-3.9s-1.53-5.35-2.75-8.27c-1.22-2.9-2.37-5.63-2.73-7.8-.69-4.13,2-9.01,5.12-14.66.93-1.69,1.9-3.44,2.76-5.16,2.35-4.7,1.65-6.55.5-9.62-.22-.6-.45-1.21-.67-1.85-1.24-3.72-4.74-16.85,2.31-29.39,5.47-9.73,2.52-20.32,2.49-20.43l-.7-2.44,2.27-1.14c5.61-2.8,5.34-5.7,5.17-7.62-.09-1.01-.26-2.88,1.41-4.03.62-.42,1.93-1,3.75-.09.91.39,4.79-.87,7.84-3.16,1.98-1.48,3.6-1.75,4.78-1.95.89-.15,1.34-.22,2.12-.81.31-.23.38-.32.61-1.57.29-1.58.74-3.97,3.2-6.43,1.72-1.72,3.45-4.83,5.13-7.84,1.32-2.37,2.68-4.82,4.21-6.96,1.65-2.31,3.46-4.48,5.06-6.39,1.79-2.14,3.47-4.16,4.47-5.83l.14-.24c1.45-2.41,1.8-2.99-1.8-13.79-4.46-13.39,5.35-101.3,6.11-105.11.31-1.53.5-9.67.65-16.22.17-7.15.34-14.55.69-18,.46-4.56-2.62-11.7-4.86-16.9-.71-1.64-1.37-3.19-1.86-4.5-.8-2.13-3.54-8.52-6.45-15.29-5.85-13.62-10.06-23.48-10.88-26.36-.81-2.82-.97-8.72-1.16-15.55-.17-6.05-.34-12.3-.98-15.81-1.32-7.25-5.48-14.73-7.21-17.61-2.24-3.73-3.62-5.06-4.26-5.52-.67.78-1.43,1.53-2.3,2.38-3.27,3.23-7.76,7.65-9.21,15.9-2.16,12.25-8.51,21.53-8.78,21.92l-5.03-3.48s0,0,0,0h0c.14-.2,5.88-8.69,7.79-19.5,1.79-10.17,7.3-15.6,10.94-19.19.87-.86,1.63-1.61,2.11-2.21,1.2-1.5,2.83-2.26,4.59-2.15,3.01.2,5.9,2.88,9.39,8.7,2.36,3.93,6.53,11.72,7.98,19.66.72,3.97.9,10.45,1.07,16.73.16,5.6.33,11.95.93,14.04.78,2.73,6.47,15.96,10.62,25.63,3.07,7.13,5.71,13.3,6.56,15.56.44,1.17,1.08,2.66,1.75,4.23,2.65,6.14,5.94,13.79,5.33,19.93-.32,3.21-.49,10.49-.66,17.53-.22,9.44-.38,15.33-.77,17.28-.75,3.89-10.09,90.64-6.31,101.97,4.1,12.31,3.92,14.43,1.24,18.87l-.14.23c-1.24,2.07-3.08,4.27-5.02,6.6-1.6,1.92-3.26,3.91-4.78,6.03-1.33,1.86-2.61,4.16-3.84,6.38-1.97,3.53-3.82,6.87-6.15,9.19-1.13,1.13-1.28,1.96-1.52,3.23-.29,1.53-.67,3.63-2.95,5.34-1.98,1.48-3.6,1.75-4.78,1.95-.89.15-1.34.22-2.12.81-.28.21-5.59,4.14-10.51,4.42-.17,2.75-1.34,6.61-6.49,9.87.76,4.3,1.53,13.67-3.57,22.73-5.82,10.34-2.88,21.33-1.84,24.46.19.57.39,1.1.59,1.63,1.31,3.48,2.79,7.42-.76,14.51-.91,1.83-1.91,3.63-2.87,5.37-2.13,3.86-4.78,8.67-4.44,10.7.24,1.46,1.31,3.99,2.33,6.43,1.66,3.95,3.23,7.69,3.23,10.64,0,5.02-2.41,8.37-2.68,8.74l-.92,1.22h-1.53c-2.41,0-5.22.42-5.9.87-1.67,1.11-3.06,1.77-4.37,2.07-2.53.59-4.74-.23-6.08-2.23-.45-.67-.97-1.77-2.02-4-1.42-3.02-5.7-12.14-7.82-13.34-8.12-1.35-10.9-1.16-11.77-.74-1.6,1.69-3.85,6.38-3.85,10.17,0,3.31,2.21,8.02,3.07,9.56l3.42,6.16-6.83-1.71c-2.86-.71-7.62-1.06-9.08.11-1.37,1.1-2.37,2.35-3.34,3.55-1.32,1.65-2.57,3.21-4.51,3.86-2.47.82-4.85.85-5.11.85Zm26.17-32.52h0,0Z"/>
      </g>
      <g>
        <path class="cls-1" d="m658.23,236.03s4.14-45.56-9.66-57.98c-.51-.46-2.07,25.54-2.07,25.54,0,0,1.97-21.94-2.42-30.72-2.07-4.14-4.8-11.84-6.9-28.3,0,0-8.28,8.28-7.94,35.55.04,2.93,4.83-37.27-19.33-40.73,0,0,10.35,20.02,10.35,28.3s-2.07-22.78-13.12-29.68c-11.04-6.9-14.5-22.78-14.5-22.78,0,0-.69,15.19,6.9,27.61,0,0-15.19-24.16-20.02-24.16s-10.35-14.5-12.42-14.5l5.99,21.1"/>
        <path class="cls-2" d="m658.23,236.03c.43-15.11.53-44.67-10-56.05-.23-.22-.52-.51-.74-.72.09.04-.27-.15.41.27.56.34,1.52-.03,1.56-.15.26-.14.49-.51.57-.74,0,0-.06.44-.06.44l-.07.62c-.67,7.96-.95,16-1.32,24.01,0,0-4.17-.31-4.17-.31.32-4.89.39-9.9.16-14.8-.27-4.62-.68-9.74-2.43-13.91-1.09-2.34-2.2-4.73-2.97-7.19-2.39-7.35-3.67-15-4.74-22.59l4.7,1.61s-.02.03-.07.1c-3.86,5.41-5.14,12.14-6.07,18.66-.65,4.76-.8,9.7-.78,14.51v.26s0-.09,0-.09c-.01-.12-.02-.23-.05-.34.05.16-.15-.75-.61-1.25-2.24-2.17-6.2.76-4.78.31-.35.64-.27.56-.37.87,1.07-13.13-1-34.76-16.9-37.18,0,0,3.1-4.36,3.1-4.36,3.59,7.24,6.88,14.34,9.25,22.13.81,2.74,1.56,6,1.3,9.08-.3,3.15-4.63,3.92-5.79.69-1.13-5.01-1.84-9.95-3.33-14.78-1.6-5.13-3.4-10.5-7.24-14.11-.57-.52-1.55-1.12-2.16-1.58-7.78-5.67-11.96-14.65-14.22-23.72,0,0,4.58-.39,4.58-.39-.2,9.07,1.68,18.57,6.19,26.53,0,0-3.18,1.97-3.18,1.97-5.05-7.89-9.97-16.35-16.7-22.89-.63-.5-1.19-1-1.93-1.07-1.6-.13-2.8-1.17-3.65-2-2.33-2.42-3.89-5.37-5.51-8.21-.94-1.61-1.9-3.57-3.06-4.77,0,0,.68-.9.68-.9,1.37,5.32,3.99,15.97,5.31,21.3,0,0-3.36-10.45-3.36-10.45l-3.31-10.46-.31-.98c.39.06,1.08.04,1.43.15.57.23,1,.7,1.37,1.14,2.3,2.96,4.06,6.38,6.33,9.3,1.01,1.28,2.57,3.24,4.11,3.46,1.31,0,2.55.74,3.5,1.49,7.47,6.49,12.69,14.87,18.27,22.9,0,0-3.18,1.97-3.18,1.97-1.29-2.16-2.52-4.37-3.44-6.7-1.92-4.62-3.08-9.5-3.72-14.45-.86-5.2-.22-18.7-.27-24.12,0,0,4.39,16.19,4.39,16.19,1.9,6.99,5.44,14.11,10.67,18.79,1.41,1.34,3.15,2.22,4.64,3.46,4.91,4.35,7.22,10.66,9.14,16.53,1.49,4.69,2.53,9.95,3.48,14.47-.02-.04-.02-.07-.13-.31-1.35-2.46-4.88-1.7-5.37.76-.08-5.37-2.91-11.82-5.18-17.26-2.2-5.11-4.99-10.57-7.54-15.52,0,0,5.72.75,5.72.75,17.62,2.27,22.51,22.55,22.3,37.53-.05,2.35-.02,4.68-.5,7.1-.15.41.03.09-.36.81,1.42-.44-2.56,2.51-4.81.32-.47-.51-.68-1.44-.63-1.29-.04-.18-.07-.41-.07-.6.06-11.87.87-24.4,6.94-34.94,1.05-2.05,4.43-5.13,6.02-6.8,1.11,9.15,2.17,18.61,4.87,27.4.69,2.35,1.65,4.58,2.63,6.8,1.08,2.7,1.57,5.34,1.9,7.95.89,7.72.63,15.39-.04,23.1l-4.17-.31c.71-8.28,1.25-16.59,2.33-24.86.08-.42.17-1.17.56-1.59.32-.38,1.05-.82,1.92-.44.69.41.34.24.44.29l.02.02.03.03.06.07.26.27.51.54c10.99,12.72,9.31,42.24,7.69,58.25h0Z"/>
      </g>
      <g>
        <path class="cls-1" d="m522.94,223.6s-6.9-10.35-4.83-20.02c2.07-9.66,6.21-28.99,6.21-28.99,0,0-22.78-37.96,2.76-78,0,0-3.45-6.9,1.38-15.88,4.83-8.97,11.04-17.26,15.19-15.88,4.14,1.38,13.81,12.42,17.26,22.09,3.45,9.66,3.45,19.33,8.97,31.75.9,2.02,2.25,4.24,3.92,6.61,8.6,12.2,25.61,28.3,31.97,41.02,7.59,15.19,8.28,28.3,6.9,36.58-1.38,8.28-2.76,17.26-2.76,17.26"/>
        <path class="cls-2" d="m520.4,225.3c-.31-.47-7.59-11.55-5.28-22.35l5.97-27.86c-1.59-2.96-5.87-11.72-7.98-23.95-2.33-13.48-2.33-33.83,10.58-54.88-.91-2.95-2.02-9.37,2.08-16.98,7.15-13.28,13.49-19.11,18.84-17.33,5.26,1.75,15.5,13.69,19.17,23.96,1.49,4.17,2.34,8.22,3.24,12.51,1.24,5.9,2.52,12.01,5.64,19.03.77,1.72,1.95,3.71,3.63,6.09,3.3,4.68,7.88,9.96,12.73,15.55,7.6,8.76,15.45,17.81,19.48,25.86,8.87,17.74,8.31,31.71,7.18,38.45-1.36,8.17-2.74,17.13-2.75,17.22l-6.04-.93c.01-.09,1.4-9.09,2.77-17.29.81-4.84,1.78-17.92-6.62-34.71-3.68-7.36-11.28-16.12-18.63-24.59-4.95-5.71-9.63-11.1-13.11-16.03-1.91-2.7-3.29-5.04-4.22-7.13-3.38-7.61-4.79-14.33-6.04-20.25-.86-4.08-1.67-7.94-3.02-11.72-3.23-9.03-12.39-19.23-15.34-20.22-1.11-.08-5.58,3.38-11.53,14.43-3.96,7.35-1.43,12.86-1.32,13.09l.72,1.53-.89,1.45c-24.24,38-2.94,74.42-2.72,74.78l.62,1.03-6.47,30.17c-1.77,8.25,4.33,17.59,4.39,17.69l-5.09,3.39Z"/>
      </g>
      <g>
        <path class="cls-1" d="m509.48,436.55c1.38,1.38,7.59,8.97,5.52,13.12-2.07,4.14-5.52,13.12-5.52,13.12,0,0,4.83,21.4,3.45,26.92-1.38,5.52-7.59,51.77,8.28,55.91,15.88,4.14,6.9-2.07,6.9-2.07,0,0,2.76,3.45,1.38,6.21-1.38,2.76-1.38,7.59-4.83,8.28-3.45.69-8.97,3.45-15.19-8.28-6.21-11.73-3.45-4.83-3.45-4.83,0,0-24.82-5.52-28.3-9.66-7.79-9.29-8.63-27.72-9.3-39.35-1.04-18.17.35-35.51-6.97-52.83-9.22-21.81-20.33-16.32-39.29-10.89-11.29,3.23-22.91,5.54-34.66,6.18-24.37,1.33-48.22-5.15-67.35-20.62,18.04,4.5,43.04,9,59.38-2.39,23.26-16.21,9.69-63.58-20.54-54.03-18.85,5.95-34.53,19.04-52.33,27.27-45.29,20.94-99.1-19.49-117.47-59.02,14.3,7.29,29.39,13.5,44.7,18.29,23.64,7.41,47.07,9.5,67.95-6.55,18.7-14.38,6.09-45.49-14.73-51.3-12.69-3.54-23.73,3.69-33.72,10.57,0,0,.69-19.33,21.4-26.23,19.07-6.36,39.4-4.61,58.99-2.23,14.39,1.74,29.37,7.1,43.98,4.66,24.27-4.06,18.23-36.01-1.47-42.2-9.05-2.84-18.94-1.27-27.9,1.84,8.63-2.25,16.06-7.61,23.83-11.99,6.33-3.57,14.26-7.34,21.76-6.55,7.13.75,14.7,8.62,20.93,2.36,14.56-14.66-11.88-41-3.3-58.13,7.27,8.68,9.38,19.42,22.64,21.02,15.53,1.88,30.79-18.79,15.4-29.89-4.19-3.02-9.52-3.87-14.65-4.46-36.7-4.29-57.81-41.2-47.02-75.97-1.96,6.32,13.63,27.69,16.88,32.7,4.83,7.44,12.56,19.41,22.73,19.43,10.47.02,22.08-14.8,18.67-25.03-2.76-8.26-11.46-7.07-16.67-11.55,12.92-15.08,31.39,7.36,38.82,16.47,6.75,8.28,16.54,27.73,30.26,23.75,17.06-4.95-2.53-25.7-9.22-31.61,7.79,6.88,19.87,3.76,26.29,14.46"/>
        <path class="cls-2" d="m520.08,561.88c-3.78,0-8.62-1.85-13.3-10.7-.75-1.42-1.35-2.52-1.82-3.37-6.5-1.46-25.81-6.1-29.57-10.59-8.23-9.82-9.27-28.1-9.96-40.2l-.05-.95c-.23-3.98-.34-7.95-.45-11.79-.4-13.88-.77-26.99-6.28-40.02-7.4-17.5-14.82-15.3-31.08-10.48-1.47.43-2.98.88-4.55,1.33-12.68,3.63-24.23,5.68-35.33,6.29-26.43,1.44-50.43-5.92-69.44-21.3l-10.74-8.69,13.4,3.35c17.11,4.27,41.62,8.72,56.89-1.93,11.79-8.22,12.83-25.33,7.03-37.12-5.16-10.49-14.47-14.78-24.89-11.49-10.88,3.44-21,9.52-30.78,15.4-6.81,4.09-13.85,8.33-21.19,11.72-9.02,4.17-18.32,6.03-27.59,6.03-39.67,0-78.82-34.03-93.93-66.54l-3.74-8.04,7.89,4.03c14.31,7.3,29.19,13.39,44.22,18.1,28.15,8.82,48.25,6.95,65.17-6.06,8.8-6.77,8.43-16.47,7.42-21.66-2.22-11.44-10.9-21.43-21.11-24.28-10.82-3.02-20.51,2.81-31.17,10.14l-5,3.45.22-6.07c0-.21,1.03-21.53,23.49-29.02,19.65-6.55,40.58-4.76,60.33-2.37,4.59.56,9.28,1.48,13.81,2.37,9.73,1.91,19.79,3.89,29.3,2.31,10.85-1.81,12.97-9.34,13.27-13.66.6-8.58-4.91-19.39-15.15-22.61-6.32-1.99-13.79-1.77-22.27.64-1.28.47-2.6.89-3.94,1.24l-1.77-5.85c1.29-.45,2.57-.85,3.83-1.21,4.78-1.79,9.27-4.48,13.97-7.3,1.8-1.08,3.66-2.2,5.53-3.25,6.54-3.69,15.14-7.81,23.58-6.92,2.88.3,5.59,1.48,8.21,2.62,5.38,2.34,7.82,3.05,10.23.62,6.46-6.51,2.86-16.62-.96-27.32-3.67-10.29-7.46-20.93-2.91-30.03l2.09-4.16,2.99,3.57c2.14,2.56,3.81,5.2,5.43,7.76,3.95,6.26,7.08,11.2,15.23,12.19,7.77.94,15.15-4.99,17.5-11.02,1.17-3,2.18-8.72-4.26-13.36-3.61-2.6-8.51-3.36-13.22-3.91-17.73-2.07-32.82-11.4-42.49-26.27-10.21-15.7-12.8-35.25-7.09-53.64l5.84,1.81c-.47,1.51.79,7.04,14.5,27.12.86,1.27,1.57,2.3,2.03,3l.07.11c4.35,6.7,11.64,17.91,20.11,17.93h.01c4.07,0,8.95-3.11,12.43-7.94,3.24-4.48,4.51-9.49,3.31-13.07-1.2-3.59-3.69-4.65-7.99-6.2-2.53-.92-5.4-1.96-7.77-4l-2.31-1.99,1.98-2.31c3.54-4.13,7.77-6.22,12.54-6.14,12.6.15,25.01,15.36,30.97,22.67,1.36,1.67,2.81,3.73,4.34,5.91,6.1,8.67,13.7,19.46,22.69,16.84,3.95-1.15,4.36-2.96,4.49-3.55,1.25-5.58-7.95-16.71-14.88-22.83l4.04-4.58c2.75,2.43,6.36,3.43,10.18,4.5,5.8,1.61,12.37,3.44,16.71,10.68l-5.24,3.15c-2.78-4.64-6.83-6.14-11.53-7.49,4.26,5.55,7.94,12.28,6.68,17.92-.61,2.7-2.62,6.3-8.75,8.08-13.18,3.83-22.55-9.48-29.39-19.19-1.47-2.09-2.86-4.06-4.08-5.56-4.96-6.08-16.56-20.3-26.3-20.42-1.82,0-3.5.48-5.07,1.52.88.38,1.82.72,2.79,1.07,4.24,1.53,9.51,3.44,11.7,10.01,1.83,5.5.28,12.44-4.16,18.59-4.66,6.46-11.33,10.47-17.39,10.47h-.03c-11.78-.03-20.19-12.98-25.22-20.72l-.07-.11c-.44-.68-1.12-1.67-1.95-2.89-5.05-7.4-9.12-13.74-11.83-18.96-1.35,13,1.66,25.98,8.76,36.89,8.67,13.32,22.19,21.68,38.08,23.54,5.51.64,11.28,1.56,16.08,5.02,7.04,5.07,9.42,12.75,6.38,20.54-3.26,8.34-13.09,16.18-23.93,14.86-11.03-1.34-15.42-8.28-19.66-14.99-.42-.67-.85-1.35-1.29-2.03-.3,5.78,2.11,12.53,4.62,19.57,4.28,12.02,8.71,24.44-.46,33.68-5.6,5.63-12.18,2.77-17,.68-2.3-1-4.48-1.94-6.42-2.15-6.72-.7-14.19,2.92-19.94,6.17-1.72.97-3.46,2.01-5.15,3.03,3.03.18,5.91.7,8.63,1.55,13.12,4.13,20.18,17.92,19.42,28.86-.71,10.26-7.58,17.46-18.36,19.27-10.61,1.77-21.22-.32-31.49-2.34-4.63-.91-9-1.77-13.37-2.3-19.06-2.31-39.21-4.05-57.66,2.1-10.97,3.66-15.71,11.06-17.76,16.59,8.33-5.24,18.57-9.94,29.94-6.77,12.35,3.45,22.82,15.37,25.47,29,2.17,11.18-1.36,21.26-9.7,27.67-23.92,18.39-50.37,13.43-70.73,7.05-12.42-3.89-24.72-8.7-36.7-14.34,9.92,16.78,25.79,32.62,43.09,42.67,23.01,13.36,46.46,15.75,66.01,6.71,7.05-3.26,13.94-7.4,20.61-11.41,10.08-6.07,20.51-12.34,32.09-15.99,13.36-4.22,25.7,1.38,32.22,14.62,6.94,14.11,5.47,34.74-9.01,44.83-12.88,8.98-30.16,8.86-46.37,6.15,15.34,8.47,33.19,12.36,52.43,11.31,10.64-.58,21.75-2.56,33.98-6.06,1.55-.44,3.05-.89,4.5-1.32,16.16-4.79,28.92-8.58,38.45,13.96,5.96,14.1,6.37,28.4,6.76,42.23.11,3.8.22,7.72.44,11.62l.05.95c.64,11.29,1.61,28.35,8.54,36.62,1.59,1.8,12.44,5.25,22.88,7.77.28-.36.67-.68,1.21-.93,2.63-1.22,4.21,1.4,4.88,2.51.71,1.18,1.77,3.09,3.14,5.68,4.5,8.5,7.65,7.73,10.71,6.99.41-.1.81-.2,1.18-.27.59-.12,1.12-1.94,1.5-3.27.18-.64.37-1.29.6-1.94-1.62-.26-3.52-.7-5.72-1.27-8.19-2.14-12.53-12.34-12.9-30.33-.26-12.73,1.63-26.1,2.42-29.28.83-3.32-1.53-16.91-3.47-25.51l-.2-.9.33-.87c.14-.37,3.53-9.16,5.64-13.38.8-1.59-2.51-7.14-4.95-9.59l4.32-4.32c.1.1,9.46,9.91,6.09,16.64-1.61,3.23-4.17,9.67-5.07,11.99,1.14,5.18,4.62,21.88,3.23,27.42-1.37,5.5-3.61,26.52-1.04,40.21l15,10.38c3.34,2.31,4.52,4.59,3.52,6.78-.13.28-.28.53-.45.75-.06.84-.27,1.7-.7,2.56-.29.57-.53,1.43-.79,2.34-.77,2.68-1.93,6.73-6.17,7.58-.29.06-.6.14-.93.21-1.15.28-2.6.63-4.25.63Zm-5-30.11c1.23,5.72,3.38,9.97,6.91,10.89.71.19,1.36.35,1.95.48l-8.85-11.37Z"/>
      </g>
      <g>
        <path class="cls-1" d="m420.03,534.8c.05.79.07,1.61.07,2.44,0,9.66-3.13,17.49-7,17.49-3.1,0-5.72-5.02-6.65-11.99-.23-1.73-.35-3.58-.35-5.51,0-3.38.38-6.54,1.05-9.2,2.77-2.38,5.34-4.97,7.67-7.77,7.86-9.37,11.04-28.52,8.55-28.52-1.37,0-2.62-1.43-3.56-3.8-8.65,4.44-22.54,7.3-38.19,7.3-19.37,0-36.04-4.38-43.41-10.69-.91,4.31-2.61,7.19-4.55,7.19-2.08,0-3.87-3.3-4.73-8.1-2.55,6.5-8.88,11.1-16.28,11.1-9.66,0-17.49-7.82-17.49-17.49s7.84-17.49,17.49-17.49c7.41,0,13.73,4.62,16.28,11.12.86-4.8,2.65-8.12,4.73-8.12,1.94,0,3.64,2.9,4.55,7.21,7.38-6.31,24.04-10.71,43.41-10.71,15.65,0,29.55,2.88,38.19,7.32.94-2.36,2.19-3.82,3.56-3.82,2.49,0-1.7-19.02-10.16-28.38-2.3-2.54-4.8-4.92-7.48-7.06-.83-2.85-1.31-6.31-1.31-10.05,0-1.14.04-2.25.13-3.32.64-8.07,3.59-14.17,7.14-14.17,4.01,0,7.26,7.84,7.26,17.49,0,1.56-.08,3.06-.24,4.48,17.78,12.68,29.38,33.49,29.38,57s-11.03,43.28-28.06,56.04Z"/>
        <path class="cls-2" d="m413.11,556.77c-4.21,0-7.53-5.27-8.67-13.75-.24-1.84-.37-3.78-.37-5.78,0-3.46.38-6.81,1.11-9.69l.16-.63.49-.42c2.72-2.33,5.22-4.87,7.43-7.52,6.58-7.85,9.22-21.85,8.9-25.36-1.05-.32-2.23-1.14-3.29-2.94-9.29,4.22-22.71,6.62-37.25,6.62-17.42,0-33.47-3.6-42.24-9.32-1.31,3.74-3.32,5.82-5.72,5.82-2.2,0-4.05-1.71-5.35-4.84-3.62,4.88-9.35,7.84-15.66,7.84-10.77,0-19.53-8.76-19.53-19.53s8.76-19.53,19.53-19.53c6.31,0,12.04,2.97,15.66,7.85,1.3-3.13,3.16-4.85,5.35-4.85,2.44,0,4.42,2.05,5.73,5.83,8.78-5.73,24.83-9.33,42.23-9.33,14.52,0,27.94,2.4,37.25,6.64,1.03-1.75,2.17-2.58,3.19-2.92.07-3.61-3.41-17.5-10.36-25.19-2.28-2.52-4.72-4.82-7.24-6.83l-.5-.4-.18-.62c-.91-3.12-1.39-6.8-1.39-10.62,0-1.23.05-2.41.14-3.49.76-9.59,4.45-16.04,9.17-16.04,6.04,0,9.29,10.06,9.29,19.53,0,1.2-.05,2.38-.14,3.51,18.35,13.55,29.28,35.13,29.28,57.96s-10.19,43.26-28.01,57.01c.01.46.02.95.02,1.46,0,9.71-3.1,19.53-9.03,19.53Zm-4.12-27.62c-.55,2.43-.84,5.21-.84,8.09,0,1.82.11,3.58.33,5.24.89,6.67,3.26,10.22,4.63,10.22,1.68,0,4.96-5.46,4.96-15.46,0-.85-.02-1.61-.07-2.31l-.07-1.1.88-.66c17.31-12.96,27.24-32.8,27.24-54.41s-10.66-42.6-28.52-55.34l-.98-.7.13-1.19c.15-1.34.23-2.77.23-4.25,0-9.29-3.14-15.46-5.22-15.46-1.69,0-4.48,4.38-5.11,12.3-.08.98-.12,2.04-.12,3.16,0,3.19.37,6.24,1.06,8.87,2.5,2.04,4.92,4.35,7.2,6.86,7.7,8.51,12.87,25.97,11,30.17-.45,1.01-1.33,1.61-2.36,1.61-.14.03-.88.57-1.67,2.54l-.83,2.08-1.99-1.02c-8.65-4.44-22.58-7.09-37.26-7.09-18.31,0-34.83,4.01-42.09,10.22l-2.61,2.23-.71-3.36c-.85-4.03-2.18-5.51-2.57-5.59-.41.09-1.88,1.79-2.71,6.44l-1.08,6.03,1.08,6.03c.83,4.65,2.29,6.33,2.73,6.42.37-.08,1.69-1.55,2.54-5.57l.71-3.36,2.61,2.23c7.24,6.19,23.77,10.2,42.09,10.2,14.71,0,28.64-2.64,37.26-7.07l2-1.03.83,2.09c.78,1.97,1.52,2.48,1.67,2.51h0c1.01,0,1.9.6,2.37,1.61,1.8,3.86-1.85,21.3-9.36,30.25-2.21,2.66-4.7,5.21-7.4,7.57Zm-96.34-67.35c-8.52,0-15.46,6.93-15.46,15.46s6.93,15.46,15.46,15.46c6.4,0,12.05-3.85,14.39-9.8l2.21-5.64-2.21-5.64c-2.34-5.97-7.99-9.82-14.39-9.82Z"/>
      </g>
      <g>
        <path class="cls-3" d="m480.5,228.46c-3.55.49-6.83.89-10.09,1.39-6.4.97-11.79-.99-16.33-5.5-4.88-4.83-7.97-10.74-10.39-17.07-.37-.96-.05-1.45.69-1.95,2.15-1.46,4.25-2.99,6.41-4.41.81-.53.98-1.07.65-1.96-.91-2.43-1.8-4.87-2.58-7.34-.16-.51-.05-1.48.3-1.71,6.32-4.28,12.98-7.75,20.78-8.39,5.28-.44,9.72,1.28,13.51,4.97,2.75,2.67,5.65,5.18,8.49,7.76-.11.13-.21.27-.32.4-.26-.46-.52-.91-.76-1.37-1.67-3.07-3.36-6.13-4.99-9.23-3.28-6.25-2.73-12.4.63-18.42,3.14-5.61,7.53-10.11,12.52-14.08.81-.65,1.38-.41,2.08.13,1.96,1.53,3.99,2.96,5.91,4.53.9.73,1.53.81,2.47.03,1.95-1.62,4.04-3.08,6.02-4.66.75-.6,1.31-.61,2.07,0,4.89,3.9,9.26,8.26,12.44,13.7,3.42,5.85,4.17,11.85.81,18.02-2.07,3.81-4.14,7.61-6.06,11.6.5-.54.99-1.09,1.51-1.61,2.71-2.71,5.33-5.53,8.16-8.1,4.53-4.11,10.01-4.63,15.73-3.57,6.37,1.19,12.06,4.03,17.37,7.66.4.28.66,1.26.51,1.77-.7,2.38-1.47,4.75-2.42,7.03-.57,1.35-.19,1.99.94,2.7,2.05,1.29,4.04,2.69,5.99,4.14.42.32.88,1.17.74,1.57-2.59,7.12-5.97,13.77-11.78,18.89-4.29,3.77-9.27,4.87-14.83,3.87-3.15-.57-6.33-1.04-9.63-1.29.48.28.96.56,1.44.84,2.99,1.7,5.99,3.38,8.98,5.09,5.79,3.33,8.38,8.62,9.12,15.01.71,6.09-.27,12.02-1.79,17.9-.31,1.21-.88,1.62-2.13,1.56-2.48-.12-4.97-.04-7.45-.12-1.04-.04-1.51.39-1.77,1.35-.67,2.45-1.44,4.87-2.13,7.31-.25.9-.72,1.31-1.68,1.25-6.45-.4-12.76-1.4-18.73-4.08-7.29-3.27-10.42-9.28-11.44-16.77-.22-1.61-.42-3.22-.58-4.51-.7,3.05-1.32,6.4-2.26,9.65-1.75,6.06-6.17,9.67-11.74,12.06-5.46,2.35-11.24,3.23-17.13,3.6-1.05.07-1.52-.31-1.8-1.29-.69-2.44-1.5-4.85-2.17-7.3-.31-1.15-.89-1.5-2.06-1.42-2.47.16-4.96.24-7.44.2-.55,0-1.46-.53-1.59-.99-2.08-7.11-3.22-14.31-1.63-21.7,1.08-5.01,3.75-8.92,8.32-11.36,3.43-1.83,6.94-3.52,10.41-5.28.19-.09.35-.23.74-.5Z"/>
        <path class="cls-2" d="m539.78,280.17c-.1,0-.19,0-.29,0-8-.5-14-1.81-19.44-4.25-5.73-2.57-9.51-6.86-11.46-13.03-.01.04-.02.07-.03.11-1.74,6.02-5.96,10.39-12.9,13.37-4.97,2.13-10.46,3.3-17.8,3.76-2,.13-3.35-.83-3.89-2.77-.31-1.12-.66-2.23-1-3.34-.39-1.27-.79-2.58-1.16-3.9-2.7.18-5.18.24-7.58.21-1.33-.02-3.1-1.03-3.52-2.46-2.61-8.92-3.13-15.92-1.67-22.7,1.25-5.8,4.39-10.09,9.35-12.73.24-.13.49-.26.73-.39-6.23.52-11.76-1.58-16.48-6.25-4.45-4.4-7.9-10.05-10.86-17.79-.47-1.23-.6-2.98,1.45-4.37.9-.61,1.79-1.23,2.68-1.85,1.16-.81,2.33-1.63,3.51-2.41-.79-2.12-1.69-4.59-2.5-7.15-.34-1.09-.23-3.12,1.1-4.02,5.42-3.68,12.8-7.99,21.75-8.73,5.13-.42,9.73,1.01,13.69,4.27-2.8-6.18-2.38-12.61,1.26-19.12,2.96-5.3,7.1-9.96,13.03-14.68,1-.8,2.62-1.43,4.6.12.79.62,1.6,1.22,2.41,1.83,1.16.87,2.35,1.76,3.51,2.7,1.1-.91,2.25-1.78,3.36-2.61.88-.66,1.75-1.32,2.61-2,1.51-1.2,3.1-1.21,4.61,0,5.86,4.66,9.97,9.2,12.93,14.27,3.96,6.77,4.3,13.38,1.03,19.67.09-.08.17-.16.26-.24,4.5-4.08,10.21-5.41,17.48-4.06,6,1.12,11.93,3.73,18.15,7.98,1.23.84,1.68,2.8,1.31,4.03-.59,2.01-1.42,4.66-2.5,7.24-.01.03-.02.05-.03.08.05.03.1.07.18.12,1.96,1.23,3.96,2.61,6.12,4.23.9.67,1.98,2.38,1.43,3.89-2.2,6.06-5.59,13.77-12.35,19.72-4.37,3.84-9.62,5.35-15.62,4.49.42.24.83.48,1.25.72,5.92,3.41,9.23,8.82,10.13,16.54.82,7.04-.55,13.66-1.84,18.65-.55,2.15-1.96,3.2-4.2,3.09-1.31-.06-2.66-.07-3.97-.07-1.08,0-2.15,0-3.23-.04-.35,1.27-.73,2.53-1.1,3.79-.33,1.12-.67,2.24-.98,3.37-.49,1.75-1.75,2.74-3.48,2.74Zm-30.36-38.94l1.61,12.52c.13,1.01.27,2.13.42,3.25,1.05,7.69,4.31,12.52,10.26,15.19,4.9,2.2,10.37,3.4,17.69,3.88.3-1.06.62-2.12.93-3.18.38-1.29.77-2.57,1.12-3.87.52-1.9,1.86-2.91,3.81-2.84,1.1.04,2.21.04,3.32.05,1.36,0,2.76,0,4.16.08.02,0,.03,0,.05,0,0-.01,0-.02,0-.03,1.2-4.64,2.47-10.79,1.74-17.16-.74-6.35-3.39-10.76-8.11-13.48-1.99-1.15-4-2.28-6-3.41l-2.97-1.68c-.35-.2-.69-.4-1.03-.6l-8.14-4.72,8.89.68c3.02.23,6.14.65,9.84,1.32,5.17.93,9.46-.17,13.12-3.39,4.62-4.06,8.02-9.45,10.99-17.43-2-1.49-3.86-2.77-5.67-3.9-2.06-1.29-2.64-3.05-1.73-5.22.96-2.3,1.72-4.7,2.28-6.58-5.6-3.78-10.91-6.1-16.22-7.09-6.01-1.12-10.45-.14-13.99,3.07-1.96,1.78-3.86,3.72-5.7,5.61-.79.81-1.59,1.62-2.39,2.43-.34.34-.66.69-.98,1.04l-.48.52-9.16,9.81,5.83-12.08c1.96-4.07,4.07-7.94,6.11-11.69,2.78-5.12,2.53-10.36-.78-16.02-2.66-4.55-6.39-8.67-11.72-12.95-.81.64-1.64,1.27-2.46,1.89-1.1.83-2.24,1.68-3.29,2.56-1.65,1.37-3.35,1.37-5.05-.02-1.1-.9-2.28-1.78-3.41-2.63-.78-.58-1.56-1.17-2.33-1.77-5.35,4.31-9.06,8.51-11.7,13.23-3.21,5.75-3.41,11.14-.61,16.48,1.14,2.17,2.32,4.33,3.49,6.48l1.3,2.38c.28.26.57.51.85.77l1.42,1.29-3.41,4.25-1.7-3.04c-.13-.24-.27-.47-.4-.71-.42-.38-.85-.76-1.27-1.14-1.96-1.75-3.98-3.56-5.91-5.44-3.43-3.34-7.33-4.77-11.92-4.4-7.71.64-14.28,4.35-19.23,7.66.8,2.51,1.7,4.96,2.48,7.03.67,1.78.16,3.33-1.43,4.38-1.24.82-2.45,1.67-3.67,2.51-.84.59-1.68,1.17-2.53,1.75,2.77,7.13,5.79,12.06,9.79,16.02,4.21,4.17,8.99,5.79,14.59,4.93,2.25-.34,4.51-.64,6.85-.96,1.07-.14,2.16-.29,3.27-.44l8.56-1.17-7.45,5.1c-.27.19-.46.31-.65.41-1.13.57-2.26,1.14-3.4,1.7-2.3,1.15-4.68,2.33-6.98,3.56-3.9,2.08-6.29,5.35-7.28,9.99-1.28,5.96-.83,12.22,1.46,20.23,2.23.03,4.55-.04,7.08-.2,2.73-.18,3.77,1.49,4.16,2.92.35,1.29.75,2.57,1.14,3.85.33,1.07.66,2.14.97,3.22,6.74-.45,11.75-1.51,16.22-3.43,5.83-2.5,9.19-5.92,10.59-10.76.63-2.19,1.12-4.45,1.59-6.64.21-.99.42-1.96.64-2.9l2.55-11.08Zm-37.32,28.89h0,0Zm73.34-.18h0Z"/>
      </g>
      <g>
        <path class="cls-2" d="m574.74,339.9s-12.05,30.91-7.42,40.82c4.64,9.91,14.51,25.16,25.72.64,0,0-2.44-11.47-9.76-23.59s-8.54-17.86-8.54-17.86Z"/>
        <path class="cls-2" d="m580.53,396.1c-5.11,0-10.02-4.96-14.59-14.74-4.86-10.38,6.88-40.73,7.38-42.02l1.86-4.76,1.06,4.99c.02.1,1.34,5.77,8.35,17.39,7.37,12.2,9.84,23.59,9.95,24.07l.1.49-.21.46c-4.33,9.47-8.86,14.09-13.86,14.11h-.04Zm-5.85-51.64c-3.64,10.3-9.09,28.97-5.98,35.61,3.92,8.37,8.12,12.98,11.83,12.98h.02c3.51-.02,7.27-4.11,10.88-11.86-.55-2.28-3.2-12.28-9.46-22.64-3.87-6.4-6.06-11.07-7.29-14.09Z"/>
      </g>
      <g>
        <path class="cls-2" d="m491.19,501.78c-1.98-2.54,9.71-2.53,10.73-2.55,9.29-.17,16.17-3.49,24.47-7.12l6.56,5.18-1.04,11.39s-31.06,5.52-40.73-6.9Z"/>
        <path class="cls-2" d="m516.68,510.45c-9.41,0-20.63-1.59-25.89-8.36h0c-.47-.6-.34-1.1-.22-1.34.23-.47.92-1.91,11.11-2.02h.24c8.55-.16,15.05-3.02,22.58-6.33l1.98-.87,7.01,5.54-1.1,12.05-.38.07c-.59.1-7.3,1.26-15.33,1.26Zm-25.09-8.98c8.79,11.3,36.28,7.35,39.85,6.78l.97-10.72-6.1-4.82-1.41.62c-7.63,3.36-14.22,6.26-22.97,6.42h-.24c-9.29.1-10.14,1.31-10.2,1.45-.03.07.04.19.11.27h0Z"/>
      </g>
      <g>
        <path class="cls-1" d="m551.59,548.37s27.61,24.16,42.8,10.35c0,0,6.9,15.19,16.57-5.52,9.66-20.71,2.76-20.71,2.76-20.71"/>
        <path class="cls-2" d="m600.84,566.64h-.04c-3.29-.02-5.66-2.24-7.11-4.16-16.85,11.06-42.64-11.19-43.78-12.19l3.35-3.83c.26.23,26.08,22.5,39.41,10.39l2.59-2.35,1.45,3.18c.58,1.26,2.37,3.87,4.13,3.88h0c.8,0,3.73-.68,7.81-9.42,6.71-14.39,4.6-17.17,4.57-17.2.04.04.16.11.49.11v-5.09c1.1,0,2.76.6,3.83,2.28,2.33,3.66.93,10.87-4.28,22.05-3.88,8.32-7.95,12.36-12.42,12.36Z"/>
      </g>
      <g>
        <path class="cls-1" d="m594.38,377.19s-4.83,37.96,29.68,23.47c5.94-2.5,10.64-7.14,14.34-13.12,17.79-28.75,12.58-88.35,12.58-88.35"/>
        <path class="cls-2" d="m594.38,377.19c-.22,12.87,3.83,28.09,19.95,24.39,14.09-2.99,21.11-11.16,26.31-24.31,4.83-12.2,6.83-25.27,8.32-38.27,1.36-13.16,1.92-26.45,2.02-39.81,2.04,13.25,2.55,26.73,1.94,40.12-1.37,19.8-4.06,42.41-18.8,57.45-5.16,4.96-12.08,7.57-19.11,8.72-18.23,2.92-23.41-13.25-20.63-28.29h0Z"/>
      </g>
    </g>
    <text class="cls-4" transform="translate(185.81 743.38) scale(.95 1)"><tspan x="0" y="0">Megumi</tspan></text>
  </g>
  <polygon class="cls-5" points="466.47 461.67 509.48 462.78 512.93 489.7 463.91 492.12 466.47 461.67"/>
</svg>